<?xml version="1.0" standalone="no"?>
<!DOCTYPE svg PUBLIC "-//W3C//DTD SVG 20010904//EN"
 "http://www.w3.org/TR/2001/REC-SVG-20010904/DTD/svg10.dtd">
<svg version="1.0" xmlns="http://www.w3.org/2000/svg"
 width="576.000000pt" height="581.000000pt" viewBox="0 0 576.000000 581.000000"
 preserveAspectRatio="xMidYMid meet">
<metadata>
Created by potrace 1.16, written by Peter Selinger 2001-2019
</metadata>
<g transform="translate(0.000000,581.000000) scale(0.100000,-0.100000)"
fill="#000000" stroke="none">
<path d="M0 3328 l0 -2483 25 27 25 27 2 888 3 888 36 37 c20 20 48 40 62 43
14 4 28 13 31 21 3 8 12 14 19 14 8 0 17 14 21 30 4 21 11 30 26 30 11 0 20
-7 20 -15 0 -8 4 -15 9 -15 5 0 11 -9 14 -20 3 -11 12 -20 21 -20 9 0 16 -4
16 -10 0 -6 138 -10 395 -10 l395 0 0 -73 0 -72 -80 -80 -80 -80 0 -82 0 -82
-82 -4 -83 -3 83 -2 82 -2 0 -435 c0 -283 3 -435 10 -435 6 0 10 -6 10 -14 0
-7 13 -28 29 -46 l29 -33 4 524 c4 463 7 528 21 554 9 17 17 38 17 47 0 9 11
25 25 36 14 11 25 25 25 31 0 7 7 14 15 17 12 5 15 32 15 153 0 109 4 152 15
171 8 14 19 35 24 48 6 12 14 22 18 22 5 0 7 31 5 70 -5 88 -22 92 -22 5 l0
-65 -140 0 -140 0 0 65 c0 84 18 115 66 115 24 0 34 -5 34 -15 0 -11 12 -15
50 -15 l50 0 0 165 c0 158 -1 165 -20 165 -19 0 -20 7 -20 115 0 70 4 115 10
115 6 0 10 5 10 11 0 25 43 108 53 102 6 -4 8 0 4 10 -3 9 -2 17 2 19 4 2 22
29 40 60 18 32 38 61 45 65 6 5 20 30 30 56 10 26 29 61 42 76 13 16 24 32 24
35 0 8 12 22 58 71 17 20 32 39 32 44 0 4 9 18 20 31 11 13 20 29 20 37 0 8
11 13 28 13 15 0 32 4 38 9 5 5 99 13 209 17 110 3 205 10 210 14 6 5 112 11
238 15 l227 8 0 343 c0 272 -3 344 -13 344 -7 0 -47 35 -90 78 l-77 77 0 58
c0 31 -4 57 -10 57 -6 0 -10 43 -10 110 0 61 4 110 9 110 5 0 12 16 15 35 7
36 58 95 82 95 8 0 14 4 14 10 0 5 18 15 40 21 22 7 40 15 40 19 0 5 11 11 24
14 17 4 26 15 31 35 3 16 13 35 21 42 8 6 14 15 14 20 0 5 -542 9 -1255 9
l-1255 0 0 -2482z"/>
<path d="M4670 5531 c-8 -6 -18 -7 -22 -5 -5 3 -8 2 -6 -3 1 -4 -2 -22 -6 -39
-6 -25 -15 -33 -46 -43 -22 -6 -40 -16 -40 -21 0 -6 -7 -10 -15 -10 -8 0 -19
-9 -25 -20 -6 -11 -16 -20 -22 -20 -15 0 -198 -185 -198 -200 0 -6 -4 -9 -8
-6 -4 2 -9 -5 -9 -17 -1 -11 -9 -25 -18 -29 -8 -5 -15 -16 -15 -23 0 -8 -4
-15 -10 -15 -5 0 -10 -7 -10 -15 0 -9 -6 -18 -14 -21 -8 -3 -19 -25 -25 -50
-6 -24 -13 -44 -16 -44 -2 0 -26 8 -52 19 -79 31 -183 43 -229 27 l-39 -13 80
-6 c135 -9 196 -25 245 -64 8 -6 29 -17 45 -23 l30 -11 -22 21 c-13 11 -23 28
-23 37 0 11 6 14 23 10 45 -11 94 -33 111 -50 10 -9 23 -17 31 -17 7 0 15 -7
19 -15 3 -8 10 -15 16 -15 6 0 10 33 10 83 l0 82 160 160 c157 156 160 161
160 202 0 42 0 43 35 43 34 0 35 1 35 39 0 36 -3 40 -27 44 l-28 4 28 2 c17 0
27 7 27 16 0 12 -13 15 -57 15 -32 0 -65 -4 -73 -9z m-189 -355 c-160 -160
-161 -162 -161 -206 l0 -45 -45 48 c-49 52 -52 57 -31 57 8 0 17 15 20 35 4
21 13 35 21 35 8 0 15 7 15 16 0 8 6 21 13 29 11 11 13 3 9 -44 l-4 -56 146
145 c142 140 146 146 146 187 0 59 24 63 28 5 l3 -46 -160 -160z m0 137 c-28
-40 -131 -139 -131 -127 0 10 137 154 146 154 3 0 -4 -12 -15 -27z m-247 -338
c-4 -8 -8 -15 -10 -15 -2 0 -4 7 -4 15 0 8 4 15 10 15 5 0 7 -7 4 -15z"/>
<path d="M2725 5520 c3 -5 11 -10 16 -10 6 0 7 5 4 10 -3 6 -11 10 -16 10 -6
0 -7 -4 -4 -10z"/>
<path d="M2673 5505 c-3 -9 -3 -19 1 -22 3 -4 6 1 6 10 0 8 6 18 13 20 9 4 9
6 -1 6 -7 1 -15 -6 -19 -14z"/>
<path d="M2671 5413 l-1 -63 29 0 c26 0 30 3 28 27 -1 19 3 28 16 31 11 2 17
-3 18 -15 0 -10 5 -3 10 15 6 21 6 39 0 50 -6 9 -11 12 -11 5 0 -7 -7 -13 -15
-13 -8 0 -15 -4 -15 -10 0 -5 -11 -10 -24 -10 -18 0 -26 7 -29 23 -2 12 -5 -6
-6 -40z"/>
<path d="M3378 5443 c-10 -2 -18 -11 -18 -19 0 -8 -4 -14 -10 -14 -5 0 -10 -9
-10 -20 0 -22 17 -28 96 -32 44 -3 50 -1 46 15 -3 11 1 17 12 17 23 0 20 15
-6 28 -23 11 -23 11 3 11 15 1 29 -6 33 -14 6 -17 66 -21 66 -5 0 6 -7 10 -15
10 -8 0 -15 5 -15 10 0 6 9 10 20 10 11 0 20 -4 20 -10 0 -5 9 -10 20 -10 11
0 20 -4 20 -9 0 -5 9 -13 20 -16 12 -4 37 -22 55 -41 l35 -35 2 -127 2 -127 3
113 c2 61 8 112 12 112 5 0 15 -22 22 -50 7 -27 16 -50 20 -50 3 0 9 -27 13
-60 6 -55 19 -80 34 -66 8 9 2 100 -8 106 -4 3 -11 26 -15 53 -4 26 -11 47
-16 47 -5 0 -9 7 -9 15 0 9 -7 18 -15 21 -8 4 -15 12 -15 20 0 7 -8 18 -17 23
-10 6 -15 11 -11 11 3 0 -13 20 -36 45 l-43 45 -139 -1 c-76 -1 -147 -3 -156
-6z m302 -13 c0 -5 -2 -10 -4 -10 -3 0 -8 5 -11 10 -3 6 -1 10 4 10 6 0 11 -4
11 -10z"/>
<path d="M3500 5340 c0 -6 34 -10 90 -10 l89 0 4 -147 3 -148 -1 155 0 155
-92 3 c-60 2 -93 -1 -93 -8z"/>
<path d="M2665 5330 c-3 -5 -39 -10 -78 -11 l-72 0 69 -18 c70 -18 127 -14
141 9 4 6 16 11 28 11 17 1 15 3 -8 9 -44 11 -73 11 -80 0z"/>
<path d="M2667 5267 c-7 -19 41 -33 56 -18 13 13 9 18 -24 26 -19 5 -28 2 -32
-8z"/>
<path d="M2818 5265 c-4 -11 -10 -36 -13 -56 -5 -24 -20 -50 -46 -75 -21 -21
-39 -46 -39 -56 0 -13 -8 -18 -25 -18 l-25 0 -1 -152 c0 -84 0 -179 1 -212 1
-45 -2 -58 -12 -54 -7 3 -22 2 -33 -3 -17 -6 -17 -8 -3 -8 16 -1 18 -17 21
-143 l3 -143 2 143 c1 86 6 142 12 142 6 0 10 -53 10 -140 0 -77 4 -140 9
-140 4 0 11 82 15 183 4 101 12 184 17 185 12 5 11 312 -1 312 -5 0 -11 -6
-13 -12 -3 -8 -6 -9 -6 -2 -1 6 33 45 76 86 l76 76 -9 53 c-7 39 -12 48 -16
34z m-121 -467 c-1 -40 -3 -10 -3 67 0 77 1 110 3 73 2 -37 2 -100 0 -140z"/>
<path d="M2680 5140 c-14 -11 -20 -20 -14 -20 6 0 19 9 29 20 23 25 17 25 -15
0z"/>
<path d="M2495 4900 c-3 -5 -1 -10 4 -10 6 0 11 5 11 10 0 6 -2 10 -4 10 -3 0
-8 -4 -11 -10z"/>
<path d="M5749 4763 c0 -71 -3 -122 -6 -115 -7 18 -109 16 -116 -2 -4 -10 3
-16 21 -19 l27 -4 -27 -2 c-28 -1 -28 -2 -28 -71 l0 -70 70 0 70 0 0 205 c0
113 -2 205 -5 205 -3 0 -5 -57 -6 -127z m-2 -155 c-3 -8 -6 -5 -6 6 -1 11 2
17 5 13 3 -3 4 -12 1 -19z"/>
<path d="M4295 4820 c-4 -6 4 -30 17 -53 20 -37 23 -55 23 -162 l0 -120 -53
-105 c-29 -58 -69 -127 -88 -155 -72 -102 -230 -228 -320 -255 -32 -9 -60 -10
-124 -1 -46 6 -114 11 -151 11 -110 0 -257 42 -311 88 -17 14 -48 11 -48 -5 1
-9 67 -53 81 -53 10 0 12 -10 9 -57 -1 -29 24 -73 43 -73 4 0 17 -8 27 -18 19
-18 19 -19 -28 -30 -106 -26 -178 -41 -202 -44 -25 -3 -25 -4 -21 -80 2 -52
-1 -78 -8 -78 -7 0 -11 27 -11 75 0 73 -1 75 -25 75 -25 0 -34 -14 -16 -24 11
-7 21 -62 23 -136 2 -45 -3 -62 -26 -97 -30 -45 -38 -102 -23 -157 7 -26 6
-28 -14 -23 -67 18 -117 -99 -69 -160 l20 -26 -6 31 c-5 23 -2 32 12 40 25 12
67 9 72 -6 7 -21 22 -13 22 11 0 13 5 34 12 48 11 24 13 25 50 12 38 -13 88
-4 88 16 0 5 6 11 13 14 8 3 12 -6 13 -27 1 -17 3 -49 4 -71 1 -22 -4 -75 -11
-118 -14 -77 -14 -79 -59 -105 -95 -58 -280 -117 -339 -109 -38 5 -39 4 -39
-28 0 -41 -29 -92 -56 -99 -34 -9 -104 -7 -111 4 -4 6 7 10 27 10 18 0 50 5
71 11 35 9 37 12 37 50 0 22 -10 59 -21 82 -24 45 -27 96 -8 107 8 6 5 11 -10
19 -21 12 -29 41 -11 41 6 0 10 -4 10 -10 0 -15 43 -12 65 4 18 13 18 14 -2
25 -26 13 -20 51 8 51 14 0 19 -7 19 -26 0 -14 4 -23 10 -19 14 8 1 87 -16
101 -8 6 -14 20 -14 30 0 11 -10 0 -23 -26 -13 -25 -35 -64 -50 -87 -21 -34
-27 -55 -27 -100 0 -55 -3 -62 -50 -120 -27 -34 -50 -67 -50 -72 0 -6 -4 -11
-8 -11 -4 0 -12 -13 -18 -29 -11 -27 -16 -29 -85 -35 -94 -9 -177 -28 -180
-41 -3 -17 67 -24 240 -24 148 -1 167 -3 197 -22 19 -11 34 -19 34 -17 0 2 -4
17 -9 35 -8 27 -6 32 10 36 15 4 19 0 19 -21 1 -26 1 -26 15 -8 8 10 12 23 9
27 -9 15 38 26 141 33 55 4 125 11 155 16 30 5 98 14 150 19 134 14 297 38
310 46 14 9 12 35 -5 69 -20 38 -19 63 5 93 15 19 20 21 20 9 0 -9 5 -16 10
-16 6 0 10 -4 10 -10 0 -5 -7 -10 -15 -10 -9 0 -15 -9 -15 -25 0 -21 5 -25 29
-25 26 0 28 -3 28 -37 0 -70 3 -93 13 -93 6 0 10 40 10 100 l0 100 29 0 c28 0
30 2 34 48 l3 47 2 -52 2 -53 37 0 c24 0 51 -9 75 -26 l38 -27 0 -240 0 -240
40 -73 c42 -76 52 -134 24 -134 -14 0 -14 -2 0 -22 14 -19 16 -70 16 -355 l0
-333 -115 0 -115 0 0 -50 c0 -27 5 -50 10 -50 6 0 10 -11 10 -25 0 -14 -4 -25
-10 -25 -5 0 -10 -11 -10 -25 0 -14 -4 -25 -10 -25 -5 0 -10 11 -10 25 0 23
-4 25 -41 25 -36 0 -40 2 -37 23 2 18 10 23 41 25 l37 3 0 48 0 48 -45 1 c-24
1 -47 -4 -51 -10 -4 -7 -3 -8 4 -4 8 5 12 -1 12 -14 0 -15 -5 -20 -14 -17 -17
7 -27 -41 -25 -115 l2 -48 173 0 c134 0 173 3 171 13 -1 6 -6 15 -12 19 -6 5
-5 8 3 8 7 0 10 5 7 10 -3 5 -19 10 -36 10 -24 0 -29 4 -29 25 0 16 6 25 15
25 8 0 15 5 15 10 0 6 7 10 15 10 9 0 12 6 9 15 -4 10 0 15 15 15 20 0 21 -5
23 -152 l2 -153 6 145 5 145 97 3 96 3 4 90 c4 105 6 109 96 109 34 0 62 4 62
10 0 6 6 10 14 10 9 0 16 18 20 50 l7 50 677 3 677 2 -727 3 -728 2 0 495 c0
488 0 495 20 495 11 0 20 -4 20 -10 0 -5 20 -10 45 -10 59 0 85 25 91 88 7 84
16 127 28 134 6 4 11 15 12 25 4 66 -10 60 145 62 116 1 145 -1 159 -14 17
-16 50 -11 50 7 0 5 28 9 63 8 34 -1 232 -1 440 -1 370 1 377 1 377 21 0 22
-51 23 -974 22 -230 0 -249 1 -267 19 -10 10 -19 24 -19 29 0 6 -9 10 -20 10
-25 0 -26 17 -2 23 9 3 0 5 -20 6 -52 1 -48 21 5 21 34 1 39 3 24 11 -18 10
-18 11 0 24 17 13 16 14 -7 8 -14 -3 -30 -12 -37 -20 -9 -11 -16 -12 -32 -4
-11 6 -31 11 -45 11 -14 0 -28 5 -31 10 -4 6 13 10 44 10 44 0 53 4 72 30 13
16 41 42 63 57 23 16 47 33 55 38 46 32 191 189 210 226 30 59 55 103 61 109
13 13 50 121 59 175 12 68 4 106 -47 215 -25 52 -31 60 -31 38 -1 -15 -5 -29
-10 -32 -5 -4 -12 -24 -16 -46 -4 -22 -10 -42 -15 -45 -4 -3 -11 -21 -14 -40
-4 -19 -11 -35 -15 -35 -5 0 -12 -12 -15 -26 -5 -20 -12 -25 -26 -21 -11 3
-20 1 -20 -4 0 -5 4 -9 9 -9 5 0 7 -9 4 -19 -3 -13 -10 -18 -21 -14 -10 4 -13
2 -8 -6 9 -13 -49 -105 -103 -165 -95 -105 -151 -147 -222 -167 -24 -7 -49
-16 -55 -21 -6 -4 -42 -9 -80 -11 -76 -2 -78 -1 -166 84 -47 45 -60 76 -35 83
165 43 322 133 440 251 37 38 67 64 67 59 0 -5 4 -3 9 5 5 8 20 15 33 17 12 1
26 3 29 3 3 1 6 13 6 29 0 45 14 103 39 160 13 29 26 82 30 116 6 62 6 62 -29
93 -20 18 -57 44 -82 59 -42 24 -49 25 -73 13 -15 -7 -30 -15 -34 -17 -5 -2
-8 3 -8 10 0 20 42 58 64 58 13 0 16 5 11 20 -4 12 -1 27 5 35 11 13 8 13 -19
4 -17 -6 -31 -15 -31 -20 0 -19 -29 -8 -36 13 -3 12 -20 43 -35 69 -37 59 -36
74 1 91 38 17 34 28 -20 56 -48 24 -75 28 -85 12z m-600 -930 c3 -5 1 -10 -4
-10 -6 0 -11 5 -11 10 0 6 2 10 4 10 3 0 8 -4 11 -10z m58 -90 c3 -11 2 -20
-3 -20 -4 0 -10 9 -13 20 -3 11 -2 20 3 20 4 0 10 -9 13 -20z m67 -200 c0 -11
-4 -20 -10 -20 -5 0 -10 9 -10 20 0 11 5 20 10 20 6 0 10 -9 10 -20z m-663
-32 c-3 -8 -6 -5 -6 6 -1 11 2 17 5 13 3 -3 4 -12 1 -19z m673 -33 c0 -8 -4
-15 -10 -15 -5 0 -10 7 -10 15 0 8 5 15 10 15 6 0 10 -7 10 -15z m147 -90 l2
-46 -37 32 c-30 26 -38 29 -40 16 -3 -14 -5 -14 -23 1 -20 17 -26 42 -9 42 6
0 10 -4 10 -10 0 -5 15 -10 34 -10 19 0 37 -6 40 -12 3 -7 5 -1 3 14 -3 16 0
25 7 22 6 -2 12 -25 13 -49z m-727 -37 c0 -29 -37 -23 -44 7 -4 14 -4 31 0 36
9 14 44 -20 44 -43z m662 -33 c44 -47 84 -85 89 -85 5 0 9 32 9 70 0 54 3 70
14 70 25 0 28 -36 21 -202 -8 -172 -23 -196 -27 -43 l-2 90 -6 -95 c-3 -52 -7
-86 -8 -74 -2 23 -142 164 -163 164 -11 0 -11 3 1 10 11 7 -2 10 -44 10 l-59
0 7 43 c4 26 15 50 31 63 13 12 21 25 18 28 -4 3 -1 6 5 6 7 0 12 7 12 15 0
30 24 13 102 -70z m-751 46 l29 -29 -30 -7 c-17 -4 -30 -11 -30 -16 0 -5 -9
-9 -20 -9 -25 0 -27 32 -2 65 9 14 18 25 20 25 2 0 17 -13 33 -29z m90 -90
c-7 -16 -22 -32 -33 -35 -22 -5 -58 9 -58 23 0 5 -10 11 -22 14 -30 8 -22 13
35 20 50 7 65 -7 25 -23 -19 -7 -20 -9 -5 -9 27 -1 57 18 57 36 0 9 3 13 6 10
4 -4 1 -20 -5 -36z m859 24 c0 -8 -4 -15 -10 -15 -5 0 -10 7 -10 15 0 8 5 15
10 15 6 0 10 -7 10 -15z m-302 -82 c-10 -2 -26 -2 -35 0 -10 3 -2 5 17 5 19 0
27 -2 18 -5z m470 -736 l2 -727 -45 0 -45 0 0 685 c0 616 2 685 16 685 24 0
43 25 46 59 1 17 7 30 13 28 7 -3 11 -240 13 -730z m-475 706 c-7 -2 -19 -2
-25 0 -7 3 -2 5 12 5 14 0 19 -2 13 -5z m538 -50 c0 -4 9 -11 20 -15 10 -4 19
-14 19 -23 0 -8 5 -15 10 -15 6 0 10 -4 10 -10 0 -15 -33 -50 -47 -50 -13 0
-17 -12 -14 -37 1 -7 -2 -13 -8 -13 -5 0 -12 -8 -14 -17 -3 -10 -5 35 -5 99 0
102 2 115 14 103 8 -8 15 -18 15 -22z m-242 8 c9 -6 12 -25 10 -65 -4 -50 -2
-57 14 -52 9 2 21 -3 26 -12 6 -11 8 5 4 46 -4 43 -2 62 6 62 8 0 10 -179 9
-687 l-3 -688 -5 591 -5 591 -42 49 c-41 46 -43 52 -43 111 0 63 4 70 29 54z
m-320 -75 c9 -11 9 -15 -1 -18 -12 -4 -38 14 -38 26 0 12 28 6 39 -8z m-390
-68 c-1 -24 -3 -34 -6 -23 -3 11 -9 24 -14 30 -14 14 -11 35 6 35 11 0 15 -11
14 -42z m917 -105 c-10 -10 -19 5 -10 18 6 11 8 11 12 0 2 -7 1 -15 -2 -18z
m4 -82 c0 -11 3 -26 6 -35 4 -11 1 -16 -10 -16 -12 0 -16 10 -16 35 0 19 5 35
10 35 6 0 10 -9 10 -19z m-1539 -27 c11 -30 -5 -52 -25 -35 -17 14 -21 42 -9
55 11 10 25 2 34 -20z m1229 -1324 c0 -5 -12 -10 -27 -10 -22 0 -25 2 -13 10
20 13 40 13 40 0z m-140 -105 c0 -21 -5 -25 -30 -25 -25 0 -30 4 -30 25 0 21
5 25 30 25 25 0 30 -4 30 -25z m40 0 c0 -16 -6 -25 -15 -25 -9 0 -15 9 -15 25
0 16 6 25 15 25 9 0 15 -9 15 -25z m-253 -17 c-3 -7 -5 -2 -5 12 0 14 2 19 5
13 2 -7 2 -19 0 -25z"/>
<path d="M4023 3385 c0 -22 2 -30 4 -17 2 12 2 30 0 40 -3 9 -5 -1 -4 -23z"/>
<path d="M3290 4780 c0 -6 -11 -21 -23 -33 -42 -39 -62 -95 -61 -171 0 -45 4
-71 12 -74 7 -2 12 -10 12 -18 0 -27 17 -14 29 24 26 78 61 224 61 252 0 20
-5 30 -15 30 -8 0 -15 -5 -15 -10z m1 -77 c-7 -41 -31 -58 -31 -22 0 17 25 59
35 59 1 0 -1 -17 -4 -37z"/>
<path d="M4669 4763 c-13 -16 -12 -17 4 -4 16 13 21 21 13 21 -2 0 -10 -8 -17
-17z"/>
<path d="M3724 4608 c-40 -31 -52 -46 -74 -96 -30 -67 -34 -111 -15 -179 16
-56 43 -95 89 -127 16 -11 17 -15 5 -35 -12 -20 -12 -24 6 -37 11 -8 34 -14
50 -12 24 2 30 7 28 24 -1 13 8 26 26 37 35 20 101 88 101 102 0 6 13 26 30
45 36 43 37 73 8 154 -15 41 -37 75 -66 104 -41 40 -47 42 -102 42 -44 0 -64
-5 -86 -22z m43 -14 c-3 -3 -12 -4 -19 -1 -8 3 -5 6 6 6 11 1 17 -2 13 -5z
m-27 -100 c0 -8 -4 -22 -9 -32 -5 -9 -12 -25 -15 -35 -3 -10 -12 -17 -19 -14
-16 6 -13 97 4 108 16 9 39 -7 39 -27z"/>
<path d="M5552 4600 c-10 -17 -10 -20 3 -20 8 0 15 9 15 20 0 11 -1 20 -3 20
-1 0 -8 -9 -15 -20z"/>
<path d="M4210 4570 c0 -5 -4 -10 -10 -10 -21 0 -80 -81 -80 -110 0 -20 28
-40 56 -40 61 0 119 78 107 144 -5 22 -11 26 -39 26 -19 0 -34 -4 -34 -10z"/>
<path d="M2700 4455 l0 -105 235 0 c150 0 235 4 235 10 0 6 -82 10 -225 10
l-225 0 0 95 c0 57 -4 95 -10 95 -6 0 -10 -42 -10 -105z"/>
<path d="M3465 4250 c-3 -5 -18 -10 -32 -10 -15 0 -24 -3 -20 -6 9 -9 88 7 81
17 -7 12 -21 11 -29 -1z"/>
<path d="M3328 4233 c7 -3 16 -2 19 1 4 3 -2 6 -13 5 -11 0 -14 -3 -6 -6z"/>
<path d="M2270 4172 c-202 -11 -293 -11 -385 -3 -156 14 -155 15 -155 -8 0
-15 12 -21 58 -31 105 -21 267 -39 270 -29 2 5 27 10 55 10 l52 2 -64 8 c-34
4 -68 10 -75 12 -6 2 108 7 254 11 145 4 266 9 268 11 2 2 0 10 -5 17 -7 11
-50 11 -273 0z"/>
<path d="M2583 4177 c-12 -19 17 -28 88 -25 41 2 67 6 59 9 -31 13 -141 25
-147 16z"/>
<path d="M2556 4150 c-8 -22 -25 -102 -26 -121 0 -10 10 -19 24 -21 42 -8 48
3 35 58 -21 87 -26 100 -33 84z"/>
<path d="M2830 3969 c0 -5 -4 -8 -9 -5 -5 4 -22 1 -38 -5 -15 -6 -48 -12 -73
-14 -25 -1 -49 -3 -53 -4 -5 0 0 -17 12 -37 28 -47 27 -99 -4 -162 -28 -59
-31 -98 -10 -126 14 -19 15 -19 15 8 0 27 1 27 60 25 33 -1 62 0 65 3 3 3 8
45 12 94 6 89 18 129 47 153 21 18 20 37 -4 61 -11 11 -20 15 -20 9z m-42
-266 c4 -50 -7 -55 -31 -14 -24 41 -22 63 6 59 18 -2 23 -10 25 -45z"/>
<path d="M3023 3753 c9 -2 23 -2 30 0 6 3 -1 5 -18 5 -16 0 -22 -2 -12 -5z"/>
<path d="M5218 3753 c100 -2 264 -2 365 0 100 1 18 2 -183 2 -201 0 -283 -1
-182 -2z"/>
<path d="M2901 3731 c-31 -31 -54 -83 -53 -118 1 -34 -6 -41 -25 -22 -9 9 -20
6 -43 -11 -17 -12 -34 -20 -37 -17 -7 7 -56 -50 -51 -61 7 -18 74 -101 81
-102 11 0 9 28 -3 35 -19 11 -11 52 11 58 17 5 18 3 8 -10 -27 -31 46 -46 81
-16 11 10 20 23 20 30 0 7 7 10 15 7 23 -9 18 10 -15 51 -33 42 -38 79 -14
113 12 18 19 20 35 11 12 -6 23 -8 26 -5 3 3 -5 9 -18 14 -23 9 -23 9 -3 20
22 11 37 6 48 -18 3 -8 4 -2 0 14 -3 18 0 32 8 37 8 6 2 9 -19 9 -20 0 -41 -8
-52 -19z"/>
<path d="M5010 3680 c0 -5 5 -10 10 -10 6 0 10 5 10 10 0 6 -4 10 -10 10 -5 0
-10 -4 -10 -10z"/>
<path d="M5040 3680 c0 -6 127 -10 360 -10 233 0 360 4 360 10 0 6 -127 10
-360 10 -233 0 -360 -4 -360 -10z"/>
<path d="M5218 3653 c100 -2 264 -2 365 0 100 1 18 2 -183 2 -201 0 -283 -1
-182 -2z"/>
<path d="M4978 3623 c7 -3 16 -2 19 1 4 3 -2 6 -13 5 -11 0 -14 -3 -6 -6z"/>
<path d="M5218 3623 c100 -2 264 -2 365 0 100 1 18 2 -183 2 -201 0 -283 -1
-182 -2z"/>
<path d="M4970 3580 c0 -5 7 -10 15 -10 8 0 15 5 15 10 0 6 -7 10 -15 10 -8 0
-15 -4 -15 -10z"/>
<path d="M5010 3580 c0 -5 5 -10 10 -10 6 0 10 5 10 10 0 6 -4 10 -10 10 -5 0
-10 -4 -10 -10z"/>
<path d="M5040 3580 c0 -6 127 -10 360 -10 233 0 360 4 360 10 0 6 -127 10
-360 10 -233 0 -360 -4 -360 -10z"/>
<path d="M2691 3564 c0 -11 3 -14 6 -6 3 7 2 16 -1 19 -3 4 -6 -2 -5 -13z"/>
<path d="M4978 3553 c7 -3 16 -2 19 1 4 3 -2 6 -13 5 -11 0 -14 -3 -6 -6z"/>
<path d="M5218 3553 c100 -2 264 -2 365 0 100 1 18 2 -183 2 -201 0 -283 -1
-182 -2z"/>
<path d="M4970 3510 c0 -20 5 -30 15 -30 10 0 15 10 15 30 0 20 -5 30 -15 30
-10 0 -15 -10 -15 -30z"/>
<path d="M5010 3510 c0 -16 5 -30 10 -30 6 0 10 14 10 30 0 17 -4 30 -10 30
-5 0 -10 -13 -10 -30z"/>
<path d="M5040 3510 l0 -30 360 0 360 0 0 30 0 30 -360 0 -360 0 0 -30z"/>
<path d="M4970 3385 c0 -8 7 -15 15 -15 8 0 15 7 15 15 0 8 -7 15 -15 15 -8 0
-15 -7 -15 -15z"/>
<path d="M5010 3385 c0 -8 5 -15 10 -15 6 0 10 7 10 15 0 8 -4 15 -10 15 -5 0
-10 -7 -10 -15z"/>
<path d="M5040 3385 c0 -13 47 -15 360 -15 313 0 360 2 360 15 0 13 -47 15
-360 15 -313 0 -360 -2 -360 -15z"/>
<path d="M2816 3323 c9 -38 14 -42 14 -10 0 14 -5 29 -10 32 -7 4 -8 -3 -4
-22z"/>
<path d="M4940 3320 c-34 -7 -34 -7 13 -9 26 0 47 4 47 9 0 11 -8 11 -60 0z"/>
<path d="M5010 3320 c0 -5 5 -10 10 -10 6 0 10 5 10 10 0 6 -4 10 -10 10 -5 0
-10 -4 -10 -10z"/>
<path d="M5040 3320 c0 -6 127 -10 360 -10 233 0 360 4 360 10 0 6 -127 10
-360 10 -233 0 -360 -4 -360 -10z"/>
<path d="M4673 3313 c20 -2 54 -2 75 0 20 2 3 4 -38 4 -41 0 -58 -2 -37 -4z"/>
<path d="M4600 3291 c0 -6 5 -13 10 -16 6 -3 10 1 10 9 0 9 -4 16 -10 16 -5 0
-10 -4 -10 -9z"/>
<path d="M4978 3293 c7 -3 16 -2 19 1 4 3 -2 6 -13 5 -11 0 -14 -3 -6 -6z"/>
<path d="M5218 3293 c100 -2 264 -2 365 0 100 1 18 2 -183 2 -201 0 -283 -1
-182 -2z"/>
<path d="M3121 3254 c0 -11 3 -14 6 -6 3 7 2 16 -1 19 -3 4 -6 -2 -5 -13z"/>
<path d="M4570 3255 c0 -8 7 -15 15 -15 9 0 12 6 9 15 -4 8 -10 15 -15 15 -5
0 -9 -7 -9 -15z"/>
<path d="M4830 3261 c0 -6 -17 -12 -37 -14 -22 -2 -6 -4 34 -5 71 -2 104 10
60 22 -33 9 -57 7 -57 -3z"/>
<path d="M4663 3243 c15 -2 37 -2 50 0 12 2 0 4 -28 4 -27 0 -38 -2 -22 -4z"/>
<path d="M3040 3205 c-8 -9 -8 -15 -2 -15 12 0 26 19 19 26 -2 2 -10 -2 -17
-11z"/>
<path d="M4820 3210 c8 -5 24 -10 35 -10 11 0 27 5 35 10 11 7 1 10 -35 10
-36 0 -46 -3 -35 -10z"/>
<path d="M4938 3213 c6 -2 18 -2 25 0 6 3 1 5 -13 5 -14 0 -19 -2 -12 -5z"/>
<path d="M4960 3190 c-30 -4 137 -7 373 -8 285 -1 427 1 427 8 0 12 -704 11
-800 0z"/>
<path d="M4578 3183 c7 -3 16 -2 19 1 4 3 -2 6 -13 5 -11 0 -14 -3 -6 -6z"/>
<path d="M4793 3183 c29 -3 37 -8 33 -19 -4 -11 4 -14 37 -13 39 0 40 1 17 11
l-25 11 25 7 c16 5 -1 8 -50 7 -41 0 -58 -2 -37 -4z"/>
<path d="M990 3048 c0 -13 5 -30 10 -38 7 -11 10 -7 10 17 0 17 -4 35 -10 38
-6 3 -10 -4 -10 -17z"/>
<path d="M5218 3053 c100 -2 264 -2 365 0 100 1 18 2 -183 2 -201 0 -283 -1
-182 -2z"/>
<path d="M4598 2963 c-1 -37 -1 -87 1 -109 1 -7 30 -11 81 -11 l80 -1 0 74 c0
72 -1 74 -24 74 -19 0 -26 -6 -29 -27 l-4 -28 -2 28 c0 15 -5 27 -10 27 -5 0
-12 -12 -14 -27 l-4 -28 -2 28 c0 15 -5 27 -11 27 -5 0 -11 -12 -11 -27 -2
-28 -2 -28 -6 -3 -5 24 -19 40 -35 40 -5 0 -9 -17 -10 -37z m49 -70 c-3 -10
-5 -4 -5 12 0 17 2 24 5 18 2 -7 2 -21 0 -30z m30 0 c-3 -10 -5 -4 -5 12 0 17
2 24 5 18 2 -7 2 -21 0 -30z m30 0 c-3 -10 -5 -4 -5 12 0 17 2 24 5 18 2 -7 2
-21 0 -30z"/>
<path d="M4901 2918 l-1 -76 48 5 c57 6 67 13 21 14 l-34 2 35 7 35 7 -32 2
c-28 1 -33 5 -33 25 0 20 6 25 33 29 l32 4 -32 1 c-28 2 -33 6 -33 27 0 34
-20 32 -21 -2 l-1 -28 -8 30 c-6 22 -8 10 -9 -47z m16 -25 c-3 -10 -5 -4 -5
12 0 17 2 24 5 18 2 -7 2 -21 0 -30z"/>
<path d="M1332 2917 c-22 -23 -30 -57 -13 -57 5 0 12 12 16 27 3 15 12 31 18
35 6 4 9 9 6 12 -3 3 -15 -4 -27 -17z"/>
<path d="M4548 2933 c7 -3 16 -2 19 1 4 3 -2 6 -13 5 -11 0 -14 -3 -6 -6z"/>
<path d="M5218 2933 c100 -2 264 -2 365 0 100 1 18 2 -183 2 -201 0 -283 -1
-182 -2z"/>
<path d="M4548 2873 c7 -3 16 -2 19 1 4 3 -2 6 -13 5 -11 0 -14 -3 -6 -6z"/>
<path d="M5218 2873 c100 -2 264 -2 365 0 100 1 18 2 -183 2 -201 0 -283 -1
-182 -2z"/>
<path d="M4548 2853 c7 -3 16 -2 19 1 4 3 -2 6 -13 5 -11 0 -14 -3 -6 -6z"/>
<path d="M5218 2853 c100 -2 264 -2 365 0 100 1 18 2 -183 2 -201 0 -283 -1
-182 -2z"/>
<path d="M5218 2833 c100 -2 264 -2 365 0 100 1 18 2 -183 2 -201 0 -283 -1
-182 -2z"/>
<path d="M4710 2800 c0 -5 11 -10 25 -10 14 0 25 5 25 10 0 6 -11 10 -25 10
-14 0 -25 -4 -25 -10z"/>
<path d="M3425 2639 c-44 -4 -96 -12 -115 -18 -19 -5 -57 -12 -85 -16 -27 -3
-66 -10 -85 -16 -19 -5 -69 -14 -110 -18 -61 -7 -66 -9 -28 -10 45 -1 71 -16
51 -30 -5 -3 -28 -40 -53 -81 -49 -84 -60 -95 -110 -108 -58 -14 -60 -11 -60
99 l0 99 -27 -1 c-17 -1 -21 -3 -10 -6 13 -3 17 -16 18 -56 0 -29 2 -68 4 -86
4 -49 -9 -77 -42 -86 -23 -5 -32 -2 -51 22 -12 15 -25 40 -29 56 -3 15 -10 30
-14 33 -5 3 -9 16 -9 30 0 13 -4 24 -10 24 -5 0 -10 -4 -10 -9 0 -12 20 -71
36 -108 8 -17 14 -34 14 -37 0 -4 40 -89 90 -189 49 -100 92 -196 96 -213 5
-25 -4 -43 -60 -119 -36 -50 -69 -94 -73 -100 -17 -21 -83 -124 -83 -129 0 -4
-21 -34 -47 -69 -59 -77 -73 -101 -73 -127 0 -13 -4 -18 -11 -15 -6 4 -25 8
-43 9 -18 1 -38 6 -44 10 -7 4 -12 3 -12 -1 0 -5 -11 -10 -24 -11 -13 -1 -53
-19 -88 -39 -51 -30 -72 -37 -110 -36 -45 1 -205 29 -333 58 -150 34 -225 48
-231 43 -3 -4 2 -18 11 -32 10 -14 14 -26 10 -26 -4 0 0 -12 10 -26 9 -15 19
-45 21 -68 2 -22 6 -54 8 -71 6 -35 -12 -51 -89 -80 -27 -10 -80 -33 -117 -51
-36 -17 -77 -35 -89 -39 -20 -7 -21 -6 -9 7 8 7 30 20 48 27 17 7 32 16 32 20
0 3 12 12 28 18 15 7 43 26 62 43 32 28 33 30 10 24 -14 -4 -27 -10 -30 -15
-3 -4 -19 -11 -35 -15 -17 -4 -35 -11 -41 -15 -12 -10 -123 -44 -174 -54 -60
-12 -109 -37 -103 -52 8 -21 90 -50 208 -73 l40 -7 -40 -1 c-22 -1 -76 5 -120
13 -44 8 -135 15 -202 15 -99 0 -123 3 -123 14 0 9 16 17 41 21 22 4 53 13 67
21 15 8 33 14 40 14 6 0 12 7 12 15 0 21 34 36 106 46 73 10 216 56 271 87 12
7 32 13 45 14 13 1 -38 5 -112 9 -302 16 -364 42 -477 207 -20 28 -38 50 -40
48 -3 -2 0 -21 6 -43 17 -58 13 -71 -10 -36 -20 32 -21 32 -45 15 -13 -9 -24
-23 -24 -29 0 -7 -4 -13 -10 -13 -5 0 -10 -6 -10 -14 0 -8 -5 -16 -11 -18 -6
-2 -15 -39 -20 -83 -8 -60 -17 -89 -40 -123 -16 -24 -29 -45 -27 -46 23 -10
104 -52 108 -56 14 -15 61 -40 75 -40 29 0 15 -25 -25 -44 -22 -11 -38 -21
-35 -24 3 -3 24 -9 47 -13 65 -11 131 -31 146 -42 10 -8 6 -17 -20 -39 -41
-35 -75 -42 -187 -36 -77 3 -87 2 -74 -10 12 -12 93 -19 130 -10 5 0 36 -2 71
-7 56 -7 67 -13 63 -37 -1 -9 36 -5 45 5 13 12 61 7 73 -7 10 -12 8 -17 -8
-25 -11 -6 -28 -11 -38 -11 -16 0 -18 -6 -15 -35 2 -19 -1 -42 -8 -50 -10 -13
-8 -15 13 -15 19 0 25 4 21 15 -3 8 1 22 11 31 13 13 32 16 103 12 97 -5 152
-26 152 -58 0 -21 15 -25 124 -34 64 -5 102 -25 51 -27 -137 -4 -360 4 -410
16 -115 26 -135 28 -135 9 0 -11 6 -15 19 -11 10 2 25 1 32 -4 9 -5 -9 -9 -47
-9 -58 0 -64 2 -93 35 l-30 35 -101 0 c-65 0 -100 4 -100 11 0 6 -6 9 -12 6
-17 -6 -68 21 -68 35 0 7 -16 -4 -36 -25 -36 -36 -38 -37 -113 -37 -74 0 -75
-1 -47 -15 15 -8 51 -15 78 -15 35 0 48 -4 46 -12 -3 -7 -17 -14 -31 -16 l-27
-3 2 -242 2 -242 6 240 6 240 2 -237 2 -238 40 0 40 0 0 240 0 241 47 0 c27 0
75 2 108 5 l60 5 80 -80 80 -81 242 0 243 0 0 -140 0 -140 44 0 44 0 4 59 c4
54 8 62 49 103 32 32 58 48 94 57 27 7 53 18 57 24 5 9 101 13 352 15 287 2
346 5 356 17 10 12 39 15 126 15 l114 0 0 -27 c1 -28 1 -28 15 6 8 18 15 35
15 37 0 2 -219 4 -487 4 -269 0 -512 3 -540 6 -51 7 -53 8 -53 38 0 22 6 34
23 41 32 14 790 8 781 -6 -5 -8 9 -9 45 -4 34 5 51 3 51 -4 0 -6 11 -11 24
-11 13 0 38 -3 55 -6 87 -18 -3 -24 -343 -24 -206 0 -377 -3 -379 -7 -9 -14
755 -4 771 9 10 9 15 9 20 1 4 -6 21 -14 37 -18 23 -5 20 -2 -15 16 -89 44
-126 58 -185 69 -33 7 -70 16 -83 21 -13 5 -46 9 -73 9 -42 0 -50 3 -47 17 4
22 72 37 100 22 17 -9 18 -13 7 -20 -8 -5 -9 -9 -4 -10 6 0 21 -2 35 -4 14 -2
63 -8 109 -15 45 -6 85 -9 88 -7 2 3 -17 8 -42 11 -25 4 -45 11 -45 17 0 5 -7
9 -16 9 -8 0 -12 4 -9 10 8 12 152 13 159 1 3 -5 35 -12 71 -16 36 -3 65 -11
65 -16 0 -5 6 -9 13 -9 17 0 93 -39 143 -73 55 -37 177 -57 353 -57 178 0 323
37 351 90 14 27 -2 50 -36 50 -31 0 -38 15 -24 50 9 22 9 33 0 50 -12 22 -12
22 62 15 40 -3 87 -10 103 -15 17 -5 71 -14 120 -20 143 -17 209 -32 228 -52
10 -10 13 -18 6 -18 -7 0 -9 -9 -5 -25 9 -34 -15 -42 -178 -60 -72 -8 -160
-21 -196 -29 -36 -8 -121 -26 -189 -40 -118 -24 -156 -36 -116 -36 15 0 16 -3
7 -12 -22 -22 -255 -14 -331 11 -35 12 -79 21 -97 21 -18 0 -35 4 -38 9 -3 5
-26 12 -51 15 -25 4 -45 11 -45 16 0 5 -13 11 -30 15 -16 4 -30 10 -30 15 0 5
-15 11 -32 15 -18 4 -42 13 -53 19 -25 16 -88 29 -80 17 3 -5 19 -12 35 -16
16 -4 32 -11 35 -16 4 -5 15 -9 26 -9 21 0 60 -22 96 -53 12 -11 29 -17 38
-13 9 3 14 2 11 -3 -6 -10 53 -41 78 -41 9 0 16 -4 16 -9 0 -11 86 -27 280
-52 225 -29 561 -17 716 27 28 8 62 14 76 14 28 0 134 32 188 56 44 21 80 52
91 82 5 12 13 22 19 22 16 0 11 -43 -8 -65 -31 -37 -129 -84 -209 -100 -50
-10 -39 -25 20 -27 l52 -1 -50 -7 -50 -7 48 -1 c26 -1 47 -5 47 -10 0 -4 -37
-44 -83 -90 -74 -73 -86 -82 -120 -82 -20 0 -37 5 -37 10 0 6 -11 10 -25 10
-14 0 -25 4 -25 10 0 5 -7 7 -15 4 -10 -4 -15 0 -15 15 0 15 -6 21 -22 21 -22
1 -23 1 -4 15 11 8 18 15 15 15 -2 0 -19 4 -37 9 -20 6 -30 6 -27 0 4 -5 -348
-9 -922 -9 -688 0 -932 -3 -941 -12 -8 -8 -14 -5 -23 14 -18 42 -63 70 -93 59
-13 -6 -27 -15 -31 -20 -3 -6 -13 -11 -21 -11 -8 0 -26 -7 -40 -16 -18 -12
-22 -20 -14 -29 16 -19 -10 -34 -66 -38 -59 -4 -99 8 -119 36 -13 19 -15 19
-21 2 -8 -20 25 -50 66 -59 14 -2 45 -9 70 -15 25 -6 72 -11 105 -11 l60 -1
-34 -14 c-18 -8 -49 -15 -67 -15 -19 0 -34 -4 -34 -10 0 -6 27 -10 60 -10 33
0 60 4 60 10 0 6 8 10 18 10 14 0 15 -2 2 -10 -11 -7 -1 -9 35 -9 40 1 45 3
25 9 -29 9 -29 9 28 16 34 5 42 3 42 -10 0 -15 167 -16 1885 -16 l1885 0 0
115 0 115 -647 2 -648 3 650 5 650 5 -647 3 c-415 1 -649 6 -653 12 -4 6 218
11 647 13 l653 2 -652 3 c-628 2 -653 1 -662 -17 -6 -10 -8 -20 -6 -23 2 -2
-6 -5 -18 -5 -19 -2 -20 -1 -4 8 21 12 23 29 3 29 -8 0 -17 6 -19 13 -4 9 -6
9 -6 0 -1 -10 -25 -13 -88 -11 -61 1 -72 3 -35 5 35 3 52 8 52 17 0 17 97 18
103 2 2 -6 2 -1 1 11 -2 12 1 25 6 28 6 4 10 3 9 -2 -6 -33 -8 -33 656 -33
l655 0 0 30 0 30 -642 1 c-576 1 -706 3 -714 12 -1 1 303 1 677 -1 l679 -3 0
180 0 181 -360 0 c-355 0 -360 0 -382 -22 -16 -16 -25 -18 -37 -11 -12 7 -27
2 -61 -22 -61 -43 -169 -79 -212 -72 -75 13 -183 40 -188 47 -3 4 -14 9 -24
11 -26 5 -31 25 -9 34 10 4 77 9 148 11 154 6 171 8 210 23 35 14 51 15 82 6
19 -6 23 -2 28 21 4 16 11 39 16 52 13 32 11 45 -5 39 -8 -3 -20 1 -26 9 -9
10 -9 14 -1 14 8 0 9 5 2 18 -6 12 -7 22 -1 28 6 6 13 31 16 56 6 44 5 46 -15
41 -28 -7 -51 13 -51 47 0 34 22 54 50 45 21 -7 27 4 11 21 -5 5 -21 52 -36
104 -52 183 -45 170 -82 170 -35 0 -44 -14 -17 -24 14 -5 16 -16 11 -64 -6
-55 -8 -69 -23 -137 -11 -45 -11 -75 -1 -75 5 0 6 -7 3 -16 -4 -9 -1 -23 5
-30 8 -9 8 -14 1 -14 -7 0 -5 -10 4 -27 7 -16 14 -34 14 -40 0 -12 19 -17 48
-14 6 1 12 -3 12 -8 0 -6 7 -8 15 -5 10 4 15 0 15 -15 0 -26 -14 -27 -51 -1
-35 26 -64 14 -74 -29 -5 -23 -17 -35 -51 -51 -24 -12 -44 -26 -44 -32 0 -6 6
-5 15 2 17 14 31 8 20 -9 -8 -13 -25 -14 -44 -2 -13 8 -13 12 0 27 8 10 9 15
2 11 -6 -4 -14 -3 -18 3 -3 5 -15 10 -26 10 -16 0 -19 -5 -14 -22 5 -17 4 -19
-3 -9 -9 12 -13 12 -27 -2 -9 -10 -20 -17 -24 -17 -4 0 -21 -20 -38 -43 -23
-34 -42 -47 -79 -60 -45 -14 -54 -14 -114 1 -89 23 -97 29 -121 97 -17 50 -20
72 -14 134 7 78 21 120 39 122 6 1 21 0 34 -1 32 -2 52 17 52 51 0 35 -17 37
-54 8 -14 -11 -30 -18 -36 -14 -6 3 -7 0 -4 -9 4 -10 1 -16 -7 -16 -7 0 -20
-7 -30 -16 -16 -14 -18 -14 -24 5 -12 38 -25 22 -25 -29 0 -27 -4 -50 -9 -50
-9 0 -19 -72 -27 -206 l-6 -91 33 -7 c26 -5 30 -9 20 -16 -12 -7 -8 -10 14
-16 26 -6 27 -8 10 -15 -19 -6 -18 -8 5 -17 24 -10 24 -11 3 -11 -38 -1 -26
-19 15 -24 l37 -4 -37 -1 c-37 -2 -51 -16 -25 -25 6 -2 8 -8 4 -13 -4 -5 -11
-3 -15 3 -4 6 -49 14 -99 18 -51 4 -93 11 -93 15 0 4 -45 11 -100 15 -57 4
-100 12 -100 17 0 7 -17 8 -45 5 -25 -4 -45 -3 -45 2 0 4 -28 11 -61 14 -34 3
-65 10 -68 15 -3 5 -17 13 -31 17 -13 4 -31 14 -38 22 -13 12 19 13 242 7 228
-6 256 -5 256 9 0 11 -12 17 -42 20 l-43 4 43 1 c40 2 42 4 42 32 0 30 0 30
-57 30 -31 0 -53 3 -50 7 4 4 30 6 57 4 39 -2 50 1 50 14 0 16 -34 20 -89 9
-37 -8 -43 -40 -8 -53 15 -7 0 -9 -55 -10 -62 0 -78 3 -78 15 0 14 -31 16
-240 17 -41 0 -61 2 -45 4 17 3 34 9 40 14 5 5 20 9 35 10 23 0 23 1 5 9 -18
8 -17 9 8 9 15 1 27 4 28 9 0 4 2 15 4 25 2 10 -3 21 -12 24 -20 8 3 23 35 23
12 0 22 5 22 10 0 6 8 10 19 10 23 0 54 45 47 68 -7 21 -80 52 -124 52 -45 0
-89 21 -137 64 -39 35 -39 37 -41 108 0 40 -4 84 -7 98 -4 15 -2 31 6 40 14
18 90 60 107 60 6 0 18 6 25 13 8 6 21 18 29 25 19 15 11 39 -25 73 -27 26
-29 27 -91 14 -35 -7 -71 -16 -80 -20 -10 -4 -18 -3 -18 2 0 5 36 24 81 43 44
18 82 38 84 44 15 59 31 105 41 126 8 14 25 54 40 90 34 84 100 209 127 238
l21 23 -31 62 c-39 76 -117 259 -131 307 -6 19 -17 58 -26 85 -9 28 -16 60
-16 73 0 25 4 24 -125 11z m-44 -308 c0 -9 2 -29 3 -46 1 -16 -7 -45 -17 -63
-26 -43 -65 -63 -111 -55 -43 7 -47 18 -7 26 18 4 30 14 34 27 3 12 15 24 26
27 23 6 19 23 -6 23 -26 0 -83 32 -83 46 0 10 15 14 54 14 34 0 58 5 66 14 14
18 40 10 41 -13z m-368 -138 c9 -9 -13 -34 -24 -27 -14 8 -11 34 4 34 8 0 17
-3 20 -7z m-116 -34 c15 -20 63 -31 63 -15 0 6 6 2 12 -8 8 -15 8 -21 0 -24
-7 -2 -12 -10 -12 -18 0 -8 -10 -14 -25 -14 -18 0 -28 8 -36 28 -6 15 -18 40
-27 56 -12 23 -12 27 -1 21 8 -5 19 -16 26 -26z m150 -15 c-3 -3 -12 -4 -19
-1 -8 3 -5 6 6 6 11 1 17 -2 13 -5z m53 -24 c45 -45 47 -95 7 -177 -11 -24
-17 -46 -14 -50 12 -12 31 15 49 70 l17 52 0 -47 c1 -57 -31 -101 -87 -119
-20 -6 -41 -15 -47 -19 -5 -5 -28 -11 -50 -14 -22 -3 -32 -3 -22 0 9 3 15 10
11 15 -3 5 -10 7 -15 3 -6 -3 -22 -3 -36 1 -24 6 -25 7 -8 25 10 11 13 20 7
20 -6 0 -9 6 -6 14 3 7 -6 38 -20 69 -30 68 -38 132 -16 132 8 0 16 -9 18 -20
2 -11 7 -24 11 -28 14 -14 88 5 114 29 15 13 31 24 37 24 5 0 10 9 10 20 0 26
15 25 40 0z m218 -125 c20 -43 13 -51 -13 -15 -29 39 -29 40 -12 40 8 0 19
-11 25 -25z m-25 -97 c11 -44 -6 -148 -24 -148 -5 0 -9 -6 -9 -13 0 -17 -62
-51 -81 -45 -8 3 -14 17 -14 31 -1 22 4 27 23 27 19 0 21 2 10 13 -7 7 -21 16
-31 20 -27 10 -11 27 26 27 35 0 26 16 -12 22 -14 1 -26 8 -28 15 -3 7 3 9 16
6 15 -4 21 -1 21 11 0 10 9 16 25 16 14 0 29 8 35 20 14 27 37 25 43 -2z m57
7 c0 -8 -7 -15 -15 -15 -16 0 -20 12 -8 23 11 12 23 8 23 -8z m-153 -382 c-21
-21 -27 -15 -16 16 7 19 12 22 21 13 9 -9 8 -16 -5 -29z m-409 -82 c8 -5 12
-22 10 -41 -3 -32 -4 -33 -20 -16 -10 10 -18 28 -18 42 0 25 7 29 28 15z
m2062 -536 c0 -27 -12 -32 -29 -12 -8 10 -7 17 1 25 19 19 28 14 28 -13z
m-1225 -135 c4 -7 -40 -9 -127 -8 -122 2 -127 2 -53 8 133 10 174 10 180 0z
m85 0 c0 -5 -15 -10 -32 -10 -25 0 -29 3 -18 10 20 13 50 13 50 0z m50 -6 c0
-2 -9 -4 -20 -4 -11 0 -20 4 -20 9 0 5 9 7 20 4 11 -3 20 -7 20 -9z m-2480 -3
c0 -5 -25 -17 -56 -27 -51 -16 -56 -16 -71 -1 -19 19 -11 24 47 30 67 7 80 7
80 -2z m2470 -32 c0 -5 -7 -9 -15 -9 -8 0 -15 -6 -16 -12 0 -10 -2 -10 -6 0
-2 6 -18 12 -34 12 -40 0 -37 18 4 22 40 4 67 -1 67 -13z m108 14 c-15 -2 -42
-2 -60 0 -18 2 -6 4 27 4 33 0 48 -2 33 -4z m-2790 -10 c-10 -2 -26 -2 -35 0
-10 3 -2 5 17 5 19 0 27 -2 18 -5z m2562 -3 c0 -12 -176 -12 -205 0 -13 6 20
9 93 9 68 1 112 -3 112 -9z m250 -20 c0 -5 -25 -10 -55 -10 -30 0 -55 5 -55
10 0 6 25 10 55 10 30 0 55 -4 55 -10z m-517 -124 c17 -13 16 -15 -13 -21 -37
-8 -65 10 -40 25 20 13 32 12 53 -4z m947 -28 c0 -19 -2 -20 -10 -8 -13 19
-13 30 0 30 6 0 10 -10 10 -22z m-2574 -42 c19 -20 18 -33 -6 -39 -11 -3 -18
-1 -14 4 3 5 -4 9 -15 9 -22 0 -35 15 -26 30 9 15 44 12 61 -4z m374 -27 c28
-16 -271 -10 -315 6 -37 14 -28 15 130 9 94 -4 177 -10 185 -15z m-960 -19 c0
-5 -9 -10 -21 -10 -11 0 -17 5 -14 10 3 6 13 10 21 10 8 0 14 -4 14 -10z
m2465 -1 c9 -14 -29 -54 -69 -72 -17 -8 -53 -18 -81 -21 l-50 -6 38 14 c48 18
116 63 124 81 6 17 29 20 38 4z m-2342 -16 c-7 -2 -21 -2 -30 0 -10 3 -4 5 12
5 17 0 24 -2 18 -5z m277 -12 c0 -4 -36 -9 -80 -10 -50 -1 -80 2 -80 9 0 6 31
10 80 10 44 0 80 -4 80 -9z m2817 -198 c-20 -2 -52 -2 -70 0 -17 2 0 4 38 4
39 0 53 -2 32 -4z m-47 -108 c-84 -85 -85 -85 -133 -83 l-48 1 83 84 c45 45
87 83 93 83 5 0 -26 -37 -70 -82 l-80 -83 85 82 c61 59 93 83 115 85 17 2 32
2 34 0 3 -1 -33 -41 -79 -87z m120 82 c0 -1 -39 -41 -87 -87 l-88 -85 85 88
c79 81 90 92 90 84z m-2553 -163 c-3 -3 -12 -4 -19 -1 -8 3 -5 6 6 6 11 1 17
-2 13 -5z"/>
<path d="M485 2510 c-11 -18 18 -20 250 -17 l230 2 -240 5 -240 4 240 6 240 6
-237 2 c-151 1 -239 -2 -243 -8z"/>
<path d="M4988 2513 c145 -2 379 -2 520 0 141 1 23 2 -263 2 -286 0 -402 -1
-257 -2z"/>
<path d="M481 2428 c0 -14 -7 -29 -13 -31 -7 -3 30 -5 82 -4 92 1 93 1 18 4
-75 4 -77 5 -81 31 l-4 27 -2 -27z"/>
<path d="M455 1695 c0 -374 1 -526 2 -337 2 189 2 495 0 680 -1 185 -2 31 -2
-343z"/>
<path d="M4821 2324 c0 -11 3 -14 6 -6 3 7 2 16 -1 19 -3 4 -6 -2 -5 -13z"/>
<path d="M774 2249 c4 -24 11 -48 17 -53 5 -6 9 -18 9 -28 0 -19 15 -24 25 -8
3 6 15 10 26 10 29 0 24 11 -33 70 l-51 53 7 -44z"/>
<path d="M4583 2185 c0 -33 2 -45 4 -27 2 18 2 45 0 60 -2 15 -4 0 -4 -33z"/>
<path d="M5083 2233 c125 -2 329 -2 455 0 125 1 22 2 -228 2 -250 0 -353 -1
-227 -2z"/>
<path d="M1418 2172 c-4 -12 -3 -24 2 -27 4 -3 11 -17 15 -32 3 -14 13 -36 22
-47 15 -20 15 -20 8 9 -3 17 -13 44 -20 60 -7 17 -15 37 -17 45 -3 10 -6 7
-10 -8z"/>
<path d="M5078 2163 c128 -2 335 -2 460 0 125 1 20 2 -233 2 -253 0 -355 -1
-227 -2z"/>
<path d="M4708 2042 c-15 -35 -15 -37 4 -45 17 -6 19 -15 16 -64 -3 -60 6 -72
37 -50 17 13 17 20 7 82 -6 38 -15 71 -20 74 -5 3 -13 14 -18 23 -8 15 -12 12
-26 -20z"/>
<path d="M3920 1970 c0 -5 5 -10 11 -10 5 0 7 5 4 10 -3 6 -8 10 -11 10 -2 0
-4 -4 -4 -10z"/>
<path d="M3928 1933 c7 -3 16 -2 19 1 4 3 -2 6 -13 5 -11 0 -14 -3 -6 -6z"/>
<path d="M3928 1723 c7 -3 16 -2 19 1 4 3 -2 6 -13 5 -11 0 -14 -3 -6 -6z"/>
<path d="M827 1703 c-4 -3 -7 -15 -7 -25 0 -10 -4 -18 -10 -18 -5 0 -10 -7
-10 -15 0 -8 -9 -15 -20 -15 -26 0 -26 -17 0 -25 37 -12 60 11 60 60 0 46 -2
50 -13 38z"/>
<path d="M3782 1674 c-7 -8 -8 -14 -3 -14 6 0 12 -24 14 -52 l3 -53 2 53 c2
49 3 52 30 53 27 2 27 2 2 6 -14 3 -27 9 -30 13 -3 4 -11 2 -18 -6z"/>
<path d="M1298 1563 c4 -218 8 -239 10 -60 1 97 -1 177 -5 177 -5 0 -7 -53 -5
-117z"/>
<path d="M3861 1648 c1 -17 2 -19 6 -5 2 9 11 17 18 17 7 0 16 -8 18 -17 4
-16 5 -16 6 -1 0 9 9 19 19 21 9 3 -2 5 -25 6 -39 1 -43 -1 -42 -21z"/>
<path d="M3862 1590 c0 -19 2 -27 5 -17 2 9 2 25 0 35 -3 9 -5 1 -5 -18z"/>
<path d="M3902 1590 c0 -19 2 -27 5 -17 2 9 2 25 0 35 -3 9 -5 1 -5 -18z"/>
<path d="M1642 1280 c0 -19 2 -27 5 -17 2 9 2 25 0 35 -3 9 -5 1 -5 -18z"/>
<path d="M750 1271 c0 -6 5 -13 10 -16 6 -3 10 1 10 9 0 9 -4 16 -10 16 -5 0
-10 -4 -10 -9z"/>
<path d="M1458 1213 c6 -2 18 -2 25 0 6 3 1 5 -13 5 -14 0 -19 -2 -12 -5z"/>
<path d="M1563 1213 c9 -2 23 -2 30 0 6 3 -1 5 -18 5 -16 0 -22 -2 -12 -5z"/>
<path d="M3517 1184 c6 -15 50 -30 60 -20 4 3 -1 6 -10 6 -9 0 -17 4 -17 9 0
5 -9 11 -19 14 -14 3 -18 1 -14 -9z"/>
<path d="M4180 1110 c0 -5 5 -10 11 -10 5 0 7 5 4 10 -3 6 -8 10 -11 10 -2 0
-4 -4 -4 -10z"/>
<path d="M694 1092 c-6 -4 -13 -15 -17 -24 -3 -10 -13 -18 -21 -18 -7 0 -16
-7 -20 -15 -9 -24 13 -17 45 14 33 33 42 63 13 43z"/>
<path d="M4920 1049 c0 -11 5 -17 10 -14 6 3 10 13 10 21 0 8 -4 14 -10 14 -5
0 -10 -9 -10 -21z"/>
<path d="M4132 1030 c0 -14 2 -19 5 -12 2 6 2 18 0 25 -3 6 -5 1 -5 -13z"/>
<path d="M600 1010 c0 -5 5 -10 11 -10 5 0 7 5 4 10 -3 6 -8 10 -11 10 -2 0
-4 -4 -4 -10z"/>
<path d="M3780 954 c36 -8 100 -9 100 -2 0 5 -26 7 -57 7 -32 -1 -51 -3 -43
-5z"/>
<path d="M3938 953 c12 -2 32 -2 45 0 12 2 2 4 -23 4 -25 0 -35 -2 -22 -4z"/>
<path d="M637 910 c-26 -9 -53 -22 -59 -28 -7 -7 -17 -12 -24 -12 -6 0 -17 -7
-24 -15 -9 -11 -38 -15 -119 -17 -58 -1 -81 -3 -51 -5 78 -4 206 -35 183 -44
-10 -4 -87 -8 -172 -8 -85 -1 -152 -3 -149 -6 3 -3 92 -6 197 -5 126 0 190 -3
186 -10 -3 -6 3 -10 14 -10 25 0 39 20 14 20 -14 1 -13 3 6 14 15 8 40 12 63
8 25 -3 38 -1 38 7 0 6 -6 11 -14 11 -31 0 -27 34 7 65 32 30 33 32 16 43 -24
15 -53 13 -112 -8z"/>
<path d="M3713 850 c0 -30 2 -43 4 -27 2 15 2 39 0 55 -2 15 -4 2 -4 -28z"/>
<path d="M3730 850 c0 -43 3 -50 20 -50 11 0 20 5 20 10 0 6 12 10 26 10 14 0
23 -4 19 -10 -4 -6 5 -10 19 -10 17 0 26 5 26 16 0 10 -6 14 -15 11 -8 -4 -17
-2 -20 3 -4 6 3 10 14 10 16 0 20 6 18 30 -2 30 -2 30 -64 30 l-63 0 0 -50z
m73 -17 c-7 -2 -19 -2 -25 0 -7 3 -2 5 12 5 14 0 19 -2 13 -5z"/>
<path d="M3917 894 c-3 -3 -3 -16 -1 -29 3 -16 -1 -25 -13 -28 -10 -2 -5 -3
11 -1 16 2 41 4 57 4 26 0 29 4 29 30 0 28 -2 30 -38 30 -21 0 -41 -3 -45 -6z"/>
<path d="M47 866 c-4 -10 -5 -21 -2 -24 9 -9 17 6 13 25 -3 17 -4 17 -11 -1z"/>
<path d="M120 855 c-7 -8 -23 -15 -36 -15 -13 0 -24 -5 -24 -11 0 -7 19 -9 56
-5 56 6 56 6 50 -19 -8 -32 1 -32 32 3 l26 27 -33 3 c-18 2 -35 10 -38 18 -7
18 -17 18 -33 -1z"/>
<path d="M693 743 c9 -2 25 -2 35 0 9 3 1 5 -18 5 -19 0 -27 -2 -17 -5z"/>
<path d="M3630 670 c0 -5 5 -10 10 -10 6 0 10 5 10 10 0 6 -4 10 -10 10 -5 0
-10 -4 -10 -10z"/>
<path d="M955 640 c-3 -5 -3 -15 1 -22 5 -7 2 -9 -8 -5 -12 4 -15 -1 -14 -19
0 -13 4 -24 7 -24 10 0 22 31 24 58 1 24 -1 27 -10 12z"/>
<path d="M364 245 c0 -137 2 -195 3 -128 2 67 2 179 0 250 -1 70 -3 16 -3
-122z"/>
<path d="M1710 425 c0 -10 11 -15 35 -15 34 0 47 -13 23 -24 -7 -3 2 -4 21 -3
54 3 48 24 -12 41 -67 20 -67 20 -67 1z"/>
<path d="M1860 415 c0 -9 6 -12 15 -9 8 4 15 10 15 15 0 5 -7 9 -15 9 -8 0
-15 -7 -15 -15z"/>
<path d="M2508 313 c24 -5 29 -18 10 -27 -7 -3 1 -4 17 -3 48 3 39 32 -10 34
-22 0 -30 -1 -17 -4z"/>
<path d="M2830 310 c0 -5 7 -7 15 -4 8 4 15 1 15 -5 0 -6 7 -8 15 -5 8 4 15 1
15 -5 0 -6 9 -11 20 -11 11 0 20 -5 20 -11 0 -6 7 -9 15 -5 8 3 15 1 15 -4 0
-6 13 -10 29 -10 16 0 31 -6 34 -14 4 -10 0 -12 -15 -8 -14 3 -19 1 -14 -6 11
-18 37 -14 52 6 10 14 15 15 25 5 7 -7 28 -13 46 -13 18 0 33 -5 33 -11 0 -6
15 -8 44 -4 28 5 46 3 50 -4 4 -6 26 -11 50 -11 23 0 47 -5 53 -11 7 -7 33 -8
79 -3 l69 8 -50 7 c-27 3 -93 11 -145 18 -195 25 -348 60 -419 98 -31 15 -51
17 -51 3z"/>
<path d="M2690 260 c-9 -6 -10 -10 -3 -10 6 0 15 5 18 10 8 12 4 12 -15 0z"/>
<path d="M1800 250 c8 -5 22 -9 30 -9 10 0 8 3 -5 9 -27 12 -43 12 -25 0z"/>
<path d="M4025 239 c-102 -23 -206 -40 -275 -46 -55 -5 -68 -8 -50 -14 38 -11
118 -10 125 1 3 6 26 10 50 10 26 0 45 5 48 13 6 18 19 2 23 -28 2 -20 -1 -25
-12 -21 -8 3 -14 -1 -14 -8 0 -8 8 -13 18 -11 9 2 27 4 40 4 12 1 22 7 22 15
0 24 68 76 100 76 17 0 30 5 30 10 0 12 -49 11 -105 -1z m-10 -29 c-3 -5 -10
-10 -16 -10 -5 0 -9 5 -9 10 0 6 7 10 16 10 8 0 12 -4 9 -10z"/>
<path d="M3555 171 c-4 -7 10 -11 41 -11 53 0 53 10 1 17 -19 2 -38 0 -42 -6z"/>
<path d="M1640 19 c0 -5 5 -7 10 -4 6 3 10 8 10 11 0 2 -4 4 -10 4 -5 0 -10
-5 -10 -11z"/>
</g>
</svg>
