<svg xmlns="http://www.w3.org/2000/svg" xmlns:xlink="http://www.w3.org/1999/xlink" width="1024" zoomAndPan="magnify" viewBox="0 0 768 767.999994" height="1024" preserveAspectRatio="xMidYMid meet" version="1.0"><defs><clipPath id="fa14a75d25"><path d="M 41.195312 84 L 215 84 L 215 260 L 41.195312 260 Z M 41.195312 84 " clip-rule="nonzero"/></clipPath><clipPath id="6bd20c9c17"><path d="M 436 11.242188 L 611 11.242188 L 611 182 L 436 182 Z M 436 11.242188 " clip-rule="nonzero"/></clipPath><clipPath id="0ef0bb23a2"><path d="M 41.195312 407 L 721 407 L 721 737 L 41.195312 737 Z M 41.195312 407 " clip-rule="nonzero"/></clipPath><clipPath id="5bc72a23c0"><path d="M 225 482 L 384 482 L 384 751.332031 L 225 751.332031 Z M 225 482 " clip-rule="nonzero"/></clipPath></defs><g clip-path="url(#fa14a75d25)"><path fill="#c69c6d" d="M 195.125 224.808594 C 195.125 224.808594 149.429688 281.632812 81.773438 249.949219 C 81.773438 249.949219 4.09375 210.839844 63.6875 121.894531 C 63.6875 121.894531 109.382812 58.8125 164.449219 96.765625 C 164.449219 96.765625 228.199219 136.71875 211.496094 194.222656 Z M 195.125 224.808594 " fill-opacity="1" fill-rule="nonzero"/></g><g clip-path="url(#6bd20c9c17)"><path fill="#c69c6d" d="M 479.851562 171.226562 C 479.851562 171.226562 544.554688 205.261719 593.898438 149.429688 C 593.898438 149.429688 649.457031 82.8125 559.109375 24.820312 C 559.109375 24.820312 491.902344 -14.953125 456.625 41.644531 C 456.625 41.644531 414.191406 103.515625 452.570312 149.652344 Z M 479.851562 171.226562 " fill-opacity="1" fill-rule="nonzero"/></g><path fill="#f8ebc9" d="M 163.730469 199.980469 C 163.730469 199.980469 141.488281 227.636719 108.5625 212.21875 C 108.5625 212.21875 70.75 193.1875 99.757812 149.890625 C 99.757812 149.890625 122 119.183594 148.804688 137.652344 C 148.804688 137.652344 179.820312 157.097656 171.703125 185.078125 L 163.730469 199.964844 Z M 163.730469 199.980469 " fill-opacity="1" fill-rule="nonzero"/><path fill="#f8ebc9" d="M 502.660156 133.273438 C 502.660156 133.273438 534.15625 149.832031 558.171875 122.664062 C 558.171875 122.664062 585.210938 90.242188 541.234375 62.023438 C 541.234375 62.023438 508.515625 42.667969 491.351562 70.21875 C 491.351562 70.21875 470.703125 100.332031 489.386719 122.78125 L 502.660156 133.289062 Z M 502.660156 133.273438 " fill-opacity="1" fill-rule="nonzero"/><g clip-path="url(#0ef0bb23a2)"><path fill="#c69c6d" d="M 273.132812 407.425781 C 273.132812 407.425781 213.539062 498.488281 210.125 555.03125 C 210.125 555.03125 185.542969 550.027344 171.910156 550.355469 C 171.910156 550.355469 127.394531 491.5625 73.640625 529.875 C 73.640625 529.875 21.003906 566.925781 50.265625 642.824219 C 50.265625 642.824219 85.78125 742.289062 191.546875 735.941406 C 191.546875 735.941406 215.519531 734.035156 231.417969 722.050781 C 231.417969 722.050781 206.640625 725.585938 298.773438 713.597656 C 298.773438 713.597656 384.484375 711.542969 485.304688 713.449219 C 515.441406 714.03125 542.273438 725.183594 589.28125 724.667969 C 589.28125 724.667969 678.226562 754.351562 717.558594 631.5625 C 717.558594 631.5625 736.96875 573.527344 682.992188 531.605469 C 682.992188 531.605469 644.121094 505.695312 600.871094 555.164062 C 600.871094 555.164062 574.320312 555.191406 563.179688 558.402344 C 563.179688 558.402344 537.152344 462.472656 513.582031 423.511719 L 273.148438 407.425781 Z M 273.132812 407.425781 " fill-opacity="1" fill-rule="nonzero"/></g><path fill="#f8ebc9" d="M 297.164062 496.671875 L 282.117188 634.363281 C 282.117188 634.363281 375.324219 685.558594 505.894531 627.773438 L 476.644531 475.921875 C 476.644531 475.921875 374.234375 509.675781 297.164062 496.65625 Z M 297.164062 496.671875 " fill-opacity="1" fill-rule="nonzero"/><g clip-path="url(#5bc72a23c0)"><path fill="#c69c6d" d="M 234.976562 482.921875 C 234.976562 482.921875 196.597656 649.113281 275.335938 729.269531 C 275.335938 729.269531 301.394531 758.125 345.777344 749.703125 C 345.777344 749.703125 381.820312 739.894531 383.25 707.992188 C 385.289062 662.328125 346.375 639.492188 329.167969 591.800781 C 329.167969 591.800781 303.988281 519.828125 315.175781 492.585938 Z M 234.976562 482.921875 " fill-opacity="1" fill-rule="nonzero"/></g><path fill="#c69c6d" d="M 512.507812 451.179688 C 512.507812 451.179688 593.167969 623.648438 529.058594 715.761719 C 529.058594 715.761719 508.230469 748.539062 463.058594 747.621094 C 463.058594 747.621094 425.875 743.933594 419.09375 712.710938 C 409.378906 668.023438 442.914062 645.636719 452.824219 589.167969 C 452.824219 589.167969 461.269531 548.773438 446.074219 475.921875 L 512.523438 451.167969 Z M 512.507812 451.179688 " fill-opacity="1" fill-rule="nonzero"/><path fill="#c69c6d" d="M 404.109375 489.269531 C 404.109375 489.269531 202.929688 546.582031 137.019531 397.050781 C 137.019531 397.050781 74.847656 251.742188 201.53125 133.730469 C 201.53125 133.730469 319.003906 33.390625 441.203125 86.347656 C 441.203125 86.347656 572.609375 133.347656 597.398438 280.386719 C 597.398438 280.386719 634.023438 438.261719 404.089844 489.285156 Z M 404.109375 489.269531 " fill-opacity="1" fill-rule="nonzero"/><path fill="#f8ebc9" d="M 446.523438 324.203125 C 412.703125 304.152344 366.113281 315.074219 366.113281 315.074219 C 366.113281 315.074219 318.601562 320.933594 293.929688 351.417969 C 293.929688 351.417969 265.90625 380.078125 275.976562 426.324219 C 275.976562 426.324219 283.726562 468.035156 331.699219 479.253906 C 331.699219 479.253906 360.421875 485.898438 395.878906 479.578125 C 431.339844 473.261719 455.941406 457.085938 455.941406 457.085938 C 496.984375 430.003906 489.625 388.203125 489.625 388.203125 C 482.859375 341.367188 446.535156 324.175781 446.535156 324.175781 Z M 446.523438 324.203125 " fill-opacity="1" fill-rule="nonzero"/><path fill="#534741" d="M 245.332031 371.539062 C 263.679688 371.539062 278.554688 356.765625 278.554688 338.542969 C 278.554688 320.316406 263.679688 305.542969 245.332031 305.542969 C 226.984375 305.542969 212.109375 320.316406 212.109375 338.542969 C 212.109375 356.765625 226.984375 371.539062 245.332031 371.539062 Z M 245.332031 371.539062 " fill-opacity="1" fill-rule="nonzero"/><path fill="#ffffff" d="M 251.976562 341.574219 C 258.980469 341.574219 264.65625 335.9375 264.65625 328.984375 C 264.65625 322.027344 258.980469 316.390625 251.976562 316.390625 C 244.972656 316.390625 239.296875 322.027344 239.296875 328.984375 C 239.296875 335.9375 244.972656 341.574219 251.976562 341.574219 Z M 251.976562 341.574219 " fill-opacity="1" fill-rule="nonzero"/><path fill="#534741" d="M 481.648438 325.507812 C 499.996094 325.507812 514.871094 310.734375 514.871094 292.507812 C 514.871094 274.28125 499.996094 259.507812 481.648438 259.507812 C 463.300781 259.507812 448.425781 274.28125 448.425781 292.507812 C 448.425781 310.734375 463.300781 325.507812 481.648438 325.507812 Z M 481.648438 325.507812 " fill-opacity="1" fill-rule="nonzero"/><path fill="#ffffff" d="M 485.886719 295.4375 C 492.722656 295.4375 498.261719 289.933594 498.261719 283.140625 C 498.261719 276.351562 492.722656 270.84375 485.886719 270.84375 C 479.046875 270.84375 473.503906 276.351562 473.503906 283.140625 C 473.503906 289.933594 479.046875 295.4375 485.886719 295.4375 Z M 485.886719 295.4375 " fill-opacity="1" fill-rule="nonzero"/><path fill="#534741" d="M 403.152344 361.035156 C 396.671875 345.011719 377.6875 347.808594 372.640625 348.871094 C 367.511719 349.613281 348.742188 353.488281 348.222656 370.757812 C 348.222656 370.757812 347.535156 383.378906 358.203125 391.492188 C 358.203125 391.492188 365.773438 398.164062 379.835938 396.328125 L 379.835938 396.386719 C 380.285156 396.3125 380.699219 396.222656 381.117188 396.152344 C 381.535156 396.089844 381.953125 396.015625 382.386719 395.941406 L 382.386719 395.882812 C 394.703125 393.042969 400.664062 384.546875 400.664062 384.546875 C 408.070312 373.417969 403.152344 361.050781 403.152344 361.050781 Z M 403.152344 361.035156 " fill-opacity="1" fill-rule="nonzero"/><path fill="#b2875b" d="M 162.0625 609.839844 C 182.847656 646.226562 183.234375 680.144531 165.667969 696.597656 C 144.675781 716.25 103.585938 692.589844 82.789062 656.199219 C 62.003906 619.8125 62.078125 578.765625 87.0625 564.675781 C 112.050781 550.605469 141.28125 573.453125 162.078125 609.839844 Z M 162.0625 609.839844 " fill-opacity="1" fill-rule="nonzero"/><path fill="#b2875b" d="M 603.078125 613.820312 C 585.480469 651.835938 588 685.664062 606.921875 700.5625 C 629.523438 718.378906 668.433594 691.328125 686.046875 653.3125 C 703.640625 615.300781 700.066406 574.398438 673.964844 562.488281 C 647.863281 550.5625 620.6875 575.804688 603.09375 613.820312 Z M 603.078125 613.820312 " fill-opacity="1" fill-rule="nonzero"/><path fill="#534741" d="M 376.808594 442.867188 C 355.714844 442.867188 343.277344 432.933594 342.664062 432.433594 C 340.117188 430.359375 339.757812 426.632812 341.84375 424.101562 C 343.929688 421.570312 347.683594 421.214844 350.234375 423.285156 C 350.785156 423.71875 364.667969 434.507812 388.3125 429.875 L 388.878906 429.769531 C 412.523438 425.136719 421.253906 409.941406 421.613281 409.304688 C 423.207031 406.464844 426.8125 405.410156 429.6875 406.96875 C 432.5625 408.519531 433.636719 412.085938 432.085938 414.941406 C 431.621094 415.785156 420.582031 435.628906 391.171875 441.386719 L 390.609375 441.488281 C 385.675781 442.449219 381.054688 442.867188 376.808594 442.867188 Z M 376.808594 442.867188 " fill-opacity="1" fill-rule="nonzero"/><path fill="#534741" d="M 388.023438 438.578125 C 385.207031 438.578125 382.703125 436.582031 382.167969 433.722656 L 372.898438 383.722656 C 372.304688 380.511719 374.449219 377.421875 377.683594 376.828125 C 380.929688 376.234375 384.03125 378.367188 384.625 381.578125 L 393.894531 431.578125 C 394.488281 434.789062 392.34375 437.882812 389.109375 438.476562 C 388.738281 438.53125 388.382812 438.578125 388.023438 438.578125 Z M 388.023438 438.578125 " fill-opacity="1" fill-rule="nonzero"/></svg>