<svg xmlns="http://www.w3.org/2000/svg" xmlns:xlink="http://www.w3.org/1999/xlink" width="70" zoomAndPan="magnify" viewBox="0 0 52.5 52.499999" height="70" preserveAspectRatio="xMidYMid meet" version="1.0"><defs><clipPath id="2d6183153c"><path d="M 0 0 L 52.003906 0 L 52.003906 52.003906 L 0 52.003906 Z M 0 0 " clip-rule="nonzero"/></clipPath><clipPath id="72a99d201e"><path d="M 2.816406 5 L 15 5 L 15 18 L 2.816406 18 Z M 2.816406 5 " clip-rule="nonzero"/></clipPath><clipPath id="edfffef8b8"><path d="M 29 0.765625 L 42 0.765625 L 42 13 L 29 13 Z M 29 0.765625 " clip-rule="nonzero"/></clipPath><clipPath id="c808ce346d"><path d="M 2.816406 27 L 49.316406 27 L 49.316406 51 L 2.816406 51 Z M 2.816406 27 " clip-rule="nonzero"/></clipPath><clipPath id="d9497c4dce"><path d="M 15 32 L 27 32 L 27 51.148438 L 15 51.148438 Z M 15 32 " clip-rule="nonzero"/></clipPath></defs><g clip-path="url(#2d6183153c)"><path fill="#ffffff" d="M 0 0 L 52.5 0 L 52.5 60 L 0 60 Z M 0 0 " fill-opacity="1" fill-rule="nonzero"/><path fill="#ffffff" d="M 0 0 L 52.5 0 L 52.5 52.5 L 0 52.5 Z M 0 0 " fill-opacity="1" fill-rule="nonzero"/><path fill="#ffffff" d="M 0 0 L 52.5 0 L 52.5 52.5 L 0 52.5 Z M 0 0 " fill-opacity="1" fill-rule="nonzero"/></g><g clip-path="url(#72a99d201e)"><path fill="#c69c6d" d="M 13.34375 15.304688 C 13.34375 15.304688 10.21875 19.171875 5.589844 17.015625 C 5.589844 17.015625 0.277344 14.351562 4.355469 8.296875 C 4.355469 8.296875 7.480469 4.003906 11.246094 6.585938 C 11.246094 6.585938 15.605469 9.308594 14.464844 13.222656 Z M 13.34375 15.304688 " fill-opacity="1" fill-rule="nonzero"/></g><g clip-path="url(#edfffef8b8)"><path fill="#c69c6d" d="M 32.816406 11.65625 C 32.816406 11.65625 37.242188 13.972656 40.617188 10.171875 C 40.617188 10.171875 44.417969 5.636719 38.238281 1.691406 C 38.238281 1.691406 33.640625 -1.015625 31.230469 2.835938 C 31.230469 2.835938 28.328125 7.046875 30.953125 10.1875 Z M 32.816406 11.65625 " fill-opacity="1" fill-rule="nonzero"/></g><path fill="#f8ebc9" d="M 11.195312 13.613281 C 11.195312 13.613281 9.675781 15.496094 7.421875 14.445312 C 7.421875 14.445312 4.835938 13.152344 6.820312 10.203125 C 6.820312 10.203125 8.34375 8.113281 10.175781 9.371094 C 10.175781 9.371094 12.296875 10.695312 11.742188 12.597656 Z M 11.195312 13.613281 " fill-opacity="1" fill-rule="nonzero"/><path fill="#f8ebc9" d="M 34.378906 9.074219 C 34.378906 9.074219 36.53125 10.199219 38.175781 8.351562 C 38.175781 8.351562 40.023438 6.144531 37.015625 4.222656 C 37.015625 4.222656 34.777344 2.90625 33.605469 4.78125 C 33.605469 4.78125 32.191406 6.832031 33.46875 8.359375 Z M 34.378906 9.074219 " fill-opacity="1" fill-rule="nonzero"/><g clip-path="url(#c808ce346d)"><path fill="#c69c6d" d="M 18.679688 27.734375 C 18.679688 27.734375 14.601562 33.933594 14.371094 37.785156 C 14.371094 37.785156 12.6875 37.441406 11.757812 37.464844 C 11.757812 37.464844 8.710938 33.464844 5.035156 36.070312 C 5.035156 36.070312 1.433594 38.59375 3.4375 43.761719 C 3.4375 43.761719 5.867188 50.53125 13.097656 50.097656 C 13.097656 50.097656 14.738281 49.96875 15.828125 49.152344 C 15.828125 49.152344 14.132812 49.394531 20.433594 48.578125 C 20.433594 48.578125 26.296875 48.4375 33.191406 48.566406 C 35.253906 48.605469 37.085938 49.367188 40.300781 49.332031 C 40.300781 49.332031 46.386719 51.351562 49.074219 42.992188 C 49.074219 42.992188 50.402344 39.042969 46.710938 36.1875 C 46.710938 36.1875 44.054688 34.425781 41.09375 37.792969 C 41.09375 37.792969 39.277344 37.792969 38.515625 38.011719 C 38.515625 38.011719 36.738281 31.484375 35.125 28.832031 Z M 18.679688 27.734375 " fill-opacity="1" fill-rule="nonzero"/></g><path fill="#f8ebc9" d="M 20.324219 33.8125 L 19.292969 43.183594 C 19.292969 43.183594 25.667969 46.667969 34.597656 42.734375 L 32.597656 32.398438 C 32.597656 32.398438 25.59375 34.695312 20.324219 33.808594 Z M 20.324219 33.8125 " fill-opacity="1" fill-rule="nonzero"/><g clip-path="url(#d9497c4dce)"><path fill="#c69c6d" d="M 16.070312 32.875 C 16.070312 32.875 13.445312 44.1875 18.832031 49.644531 C 18.832031 49.644531 20.613281 51.609375 23.648438 51.035156 C 23.648438 51.035156 26.113281 50.367188 26.210938 48.195312 C 26.351562 45.085938 23.6875 43.535156 22.511719 40.285156 C 22.511719 40.285156 20.789062 35.386719 21.554688 33.53125 Z M 16.070312 32.875 " fill-opacity="1" fill-rule="nonzero"/></g><path fill="#c69c6d" d="M 35.050781 30.714844 C 35.050781 30.714844 40.566406 42.453125 36.183594 48.726562 C 36.183594 48.726562 34.757812 50.957031 31.667969 50.894531 C 31.667969 50.894531 29.125 50.644531 28.664062 48.519531 C 27.996094 45.476562 30.292969 43.953125 30.96875 40.109375 C 30.96875 40.109375 31.546875 37.359375 30.507812 32.398438 Z M 35.050781 30.714844 " fill-opacity="1" fill-rule="nonzero"/><path fill="#c69c6d" d="M 27.636719 33.308594 C 27.636719 33.308594 13.878906 37.207031 9.371094 27.03125 C 9.371094 27.03125 5.117188 17.136719 13.78125 9.105469 C 13.78125 9.105469 21.816406 2.273438 30.175781 5.878906 C 30.175781 5.878906 39.160156 9.078125 40.859375 19.085938 C 40.859375 19.085938 43.363281 29.835938 27.636719 33.308594 Z M 27.636719 33.308594 " fill-opacity="1" fill-rule="nonzero"/><path fill="#f8ebc9" d="M 30.539062 22.070312 C 28.226562 20.707031 25.039062 21.449219 25.039062 21.449219 C 25.039062 21.449219 21.789062 21.847656 20.101562 23.921875 C 20.101562 23.921875 18.183594 25.875 18.875 29.023438 C 18.875 29.023438 19.402344 31.863281 22.683594 32.625 C 22.683594 32.625 24.648438 33.078125 27.074219 32.648438 C 29.5 32.21875 31.183594 31.117188 31.183594 31.117188 C 33.988281 29.273438 33.488281 26.425781 33.488281 26.425781 C 33.023438 23.238281 30.539062 22.066406 30.539062 22.066406 Z M 30.539062 22.070312 " fill-opacity="1" fill-rule="nonzero"/><path fill="#534741" d="M 16.777344 25.292969 C 18.03125 25.292969 19.050781 24.285156 19.050781 23.046875 C 19.050781 21.804688 18.03125 20.800781 16.777344 20.800781 C 15.523438 20.800781 14.503906 21.804688 14.503906 23.046875 C 14.503906 24.285156 15.523438 25.292969 16.777344 25.292969 Z M 16.777344 25.292969 " fill-opacity="1" fill-rule="nonzero"/><path fill="#ffffff" d="M 17.234375 23.253906 C 17.710938 23.253906 18.097656 22.867188 18.097656 22.394531 C 18.097656 21.921875 17.710938 21.539062 17.234375 21.539062 C 16.753906 21.539062 16.367188 21.921875 16.367188 22.394531 C 16.367188 22.867188 16.753906 23.253906 17.234375 23.253906 Z M 17.234375 23.253906 " fill-opacity="1" fill-rule="nonzero"/><path fill="#534741" d="M 32.941406 22.160156 C 34.195312 22.160156 35.214844 21.152344 35.214844 19.914062 C 35.214844 18.671875 34.195312 17.667969 32.941406 17.667969 C 31.6875 17.667969 30.667969 18.671875 30.667969 19.914062 C 30.667969 21.152344 31.6875 22.160156 32.941406 22.160156 Z M 32.941406 22.160156 " fill-opacity="1" fill-rule="nonzero"/><path fill="#ffffff" d="M 33.230469 20.113281 C 33.699219 20.113281 34.078125 19.738281 34.078125 19.273438 C 34.078125 18.8125 33.699219 18.4375 33.230469 18.4375 C 32.761719 18.4375 32.382812 18.8125 32.382812 19.273438 C 32.382812 19.738281 32.761719 20.113281 33.230469 20.113281 Z M 33.230469 20.113281 " fill-opacity="1" fill-rule="nonzero"/><path fill="#534741" d="M 27.570312 24.578125 C 27.128906 23.488281 25.832031 23.675781 25.484375 23.75 C 25.132812 23.800781 23.851562 24.0625 23.816406 25.238281 C 23.816406 25.238281 23.769531 26.097656 24.496094 26.652344 C 24.496094 26.652344 25.015625 27.105469 25.976562 26.980469 L 25.976562 26.984375 C 26.007812 26.980469 26.035156 26.972656 26.066406 26.96875 C 26.09375 26.964844 26.121094 26.957031 26.152344 26.953125 L 26.152344 26.949219 C 26.996094 26.757812 27.402344 26.179688 27.402344 26.179688 C 27.910156 25.421875 27.570312 24.578125 27.570312 24.578125 Z M 27.570312 24.578125 " fill-opacity="1" fill-rule="nonzero"/><path fill="#b2875b" d="M 11.082031 41.515625 C 12.503906 43.992188 12.53125 46.300781 11.328125 47.421875 C 9.894531 48.757812 7.082031 47.148438 5.660156 44.671875 C 4.238281 42.195312 4.246094 39.398438 5.953125 38.441406 C 7.664062 37.484375 9.660156 39.039062 11.082031 41.515625 Z M 11.082031 41.515625 " fill-opacity="1" fill-rule="nonzero"/><path fill="#b2875b" d="M 41.246094 41.785156 C 40.042969 44.375 40.214844 46.675781 41.507812 47.691406 C 43.054688 48.902344 45.714844 47.0625 46.921875 44.472656 C 48.125 41.886719 47.878906 39.101562 46.09375 38.292969 C 44.308594 37.480469 42.449219 39.199219 41.246094 41.785156 Z M 41.246094 41.785156 " fill-opacity="1" fill-rule="nonzero"/><path fill="#534741" d="M 25.769531 30.148438 C 24.328125 30.148438 23.476562 29.472656 23.433594 29.4375 C 23.261719 29.296875 23.234375 29.042969 23.378906 28.871094 C 23.523438 28.699219 23.777344 28.675781 23.953125 28.816406 C 23.992188 28.84375 24.941406 29.578125 26.558594 29.265625 L 26.597656 29.257812 C 28.214844 28.941406 28.808594 27.90625 28.835938 27.863281 C 28.945312 27.671875 29.191406 27.597656 29.386719 27.703125 C 29.582031 27.808594 29.65625 28.054688 29.550781 28.246094 C 29.519531 28.304688 28.765625 29.65625 26.753906 30.046875 L 26.714844 30.054688 C 26.375 30.121094 26.0625 30.148438 25.769531 30.148438 Z M 25.769531 30.148438 " fill-opacity="1" fill-rule="nonzero"/><path fill="#534741" d="M 26.539062 29.855469 C 26.34375 29.855469 26.171875 29.71875 26.136719 29.527344 L 25.503906 26.121094 C 25.460938 25.902344 25.609375 25.691406 25.832031 25.652344 C 26.050781 25.613281 26.265625 25.757812 26.304688 25.976562 L 26.9375 29.378906 C 26.980469 29.597656 26.832031 29.808594 26.613281 29.847656 C 26.585938 29.851562 26.5625 29.855469 26.539062 29.855469 Z M 26.539062 29.855469 " fill-opacity="1" fill-rule="nonzero"/></svg>